/* XPM */
static char *cadac69171754918b2fd0b63758eeb535Y64Wiq5jKcf53uV[] = {
/* columns rows colors chars-per-pixel */
"40 40 80 1 ",
"  c None",
". c #010100",
"X c #000001",
"o c #1C6432",
"O c #1D6432",
"+ c #1C6532",
"@ c #1C6433",
"# c #1C6533",
"$ c #1D6533",
"% c #88221E",
"& c #89221E",
"* c #88231E",
"= c #89231E",
"- c #88221F",
"; c #89221F",
": c #88231F",
"> c #89231F",
", c #C23230",
"< c #C33230",
"1 c #C23330",
"2 c #C33330",
"3 c #C23231",
"4 c #C33231",
"5 c #C23331",
"6 c #C33331",
"7 c #B06024",
"8 c #B06124",
"9 c #B16124",
"0 c #B06025",
"q c #B16025",
"w c #B06125",
"e c #B16125",
"r c #D67A2C",
"t c #D77A2C",
"y c #D67B2C",
"u c #D77B2C",
"i c #D67A2D",
"p c #D77A2D",
"a c #D67B2D",
"s c #D77B2D",
"d c #DC6B62",
"f c #DD6B62",
"g c #DC6A63",
"h c #DC6B63",
"j c #288E39",
"k c #298E39",
"l c #288F39",
"z c #298F39",
"x c #E09846",
"c c #E19846",
"v c #E09946",
"b c #E19946",
"n c #E09847",
"m c #E19847",
"M c #E09947",
"N c #E19947",
"B c #FCCA60",
"V c #FDCA60",
"C c #FCCB60",
"Z c #FDCB60",
"A c #FCCA61",
"S c #FDCA61",
"D c #FCCB61",
"F c #FDCB61",
"G c #F6C076",
"H c #F7C076",
"J c #F7C176",
"K c #F6C077",
"L c #F7C077",
"P c #F6C177",
"I c #F7C177",
"U c #F48882",
"Y c #F58882",
"T c #F48883",
"R c #F58983",
"E c #FDF0B6",
"W c #FCF1B6",
"Q c #FDF1B6",
"! c #FCF0B7",
"~ c #FDF0B7",
/* pixels */
"                                        ",
"                                        ",
"                                        ",
"                                        ",
"                                        ",
"                                        ",
"                                        ",
"                                        ",
"               ****                     ",
"              *PPPnnii**                ",
"             *innnnnPPPnn**             ",
"             *eiinnnnnnPnii*            ",
"              ****eeeinnnnPPi*          ",
"             *FFF<<<**eeennnnnn*        ",
"             F!FFFFF<<<<*eennnPPn*      ",
"             !F***FFnn<<<*eennnPni*     ",
"            *F*<*gnFFF#FF<<*eennn**     ",
"           *!F*<<*nFFF#iFnnn<*eienn*    ",
"           *!FF***FFFFiFFFFF<<eeenn*    ",
"           !F##FFF!!FFFFFFz#Fn<<*ne     ",
"          *nF##FFFFFF*g<*FFFnn**i*      ",
"          *<FiiFFFFF*g<<*FFn<<ii*       ",
"          <FFFFFFzzin*g**Fn<ii**        ",
"         *FF<*gFFFiiFFnnF<*ii*          ",
"         *F*<**FFFFFFnnFnii*            ",
"         *Fg**FFFFFFn<<n*i*             ",
"        *FRFFFFFFFFF<<ii*               ",
"        *<FFF..FRRFnii*                 ",
"        <<FFFFFFRRnnii                  ",
"        Fz#FFnn<*nn*                    ",
"       *F##Fn<<ii**                     ",
"       *FFF<<ii*                        ",
"       *nnn**i*                         ",
"       ****i*                           ",
"        ***                             ",
"                                        ",
"                                        ",
"                                        ",
"                                        ",
"                                        "
};
