/* XPM */
static char *result[] = {
/* columns rows colors chars-per-pixel */
"32 32 34 1 ",
"  c black",
". c #5A5B5F",
"X c #5B5D61",
"o c #5C5D61",
"O c #5C5E62",
"+ c #5F6064",
"@ c #5F6165",
"# c #616367",
"$ c #626367",
"% c #636468",
"& c #65676B",
"* c #67696D",
"= c #686A6E",
"- c #696B6F",
"; c #6A6C70",
": c #6B6D71",
"> c #6C6D71",
", c #6C6E72",
"< c #6D6E72",
"1 c #6C6F73",
"2 c #6D6F73",
"3 c #6E6F73",
"4 c #6E7074",
"5 c #6F7074",
"6 c #6F7175",
"7 c #707276",
"8 c #717276",
"9 c #717377",
"0 c #75777B",
"q c #76777B",
"w c #77797D",
"e c #787A7E",
"r c #FFE200",
"t c white",
/* pixels */
"22242,6e222222   ttt   tttrr2222",
"22242222222222   ttt   tttrr2222",
"22242222222222   ttt   tttrr2222",
"22422222222222ttt   ttt   rr2242",
"92222222222222ttt   ttt   rr2222",
"42222222222222ttt   ttt   rr226<",
",2222243221386   ttt   tttrr22,2",
"22222,o+*$2262   ttt   tttrr2>22",
"242222;;<523,2   ttt   tttrr<222",
"24222222222,22ttt   ttt   rr2222",
"24442<22222222ttt   ttt   rr2222",
"24422223<22222ttt   ttt   rr2222",
"4422222<22222,   ttt   tttrr2222",
"44422,22222222   ttt   tttrr2222",
"24444424444242   ttt   tttrr2222",
"2222222,222622ttt   ttt   rr2222",
"22222,222242X2ttt   ttt   rr2222",
"22222222222222ttt   ttt   rr2222",
"2222222,2,4222   ttt   tttrr2222",
"2222222225222,   ttt   tttrr#O=4",
"22222222222222   ttt   tttrr@-42",
"222,2222222422ttt   ttt   rr6422",
"2222222;.%&&42ttt   ttt   rr2222",
"22222222222:22ttt   ttt   rr2222",
"42222222422222   ttt   tttrr2222",
"22222222222222   ttt   tttrr2226",
"22222222222222   ttt   tttrr2<28",
"62222222222222ttt   ttt   rr2224",
",2222222222222ttt   ttt   rr222<",
"44422222222222ttt   ttt   rr3<22",
",44222,703972q   ttt   tttrr,222",
"w242222479<224   ttt   tttrr2222"
};
