/* XPM */
static char *daa5fc14bfdb4228e70002ed446548c3LPXyv807OUoLepa0[] = {
/* columns rows colors chars-per-pixel */
"32 32 26 1 ",
"  c black",
". c #040402",
"X c #030404",
"o c #070707",
"O c gray3",
"+ c #0D0D0B",
"@ c #080B0D",
"# c #1C1C1A",
"$ c #56585C",
"% c #5A5B5F",
"& c #5C5D61",
"* c #5F6064",
"= c #626367",
"- c #636468",
"; c #65676B",
": c #67696D",
"> c #686A6E",
", c #6A6C70",
"< c #6D6F73",
"1 c #6E7074",
"2 c #707276",
"3 c #75777B",
"4 c #77797D",
"5 c #37BF3F",
"6 c #3ED547",
"7 c white",
/* pixels */
"<<<1<<1<<<<<<<<<<<<<22<<:$=1<<<<",
"<<<1<<<<<<<<<<<<<<<<<<<<111<<<<<",
"<<<1<<<<<<<<<<<<<<<<<<<<<<<<<<<<",
"<<1<<<<<<<<<<<<<<<<<<<<<<<<<<<1<",
"<<<<<<<<<<<<<<<<<<<<<<<<<<<<<<<<",
"<<<<<<<<<<<<<<<<<<<<<<<<<<<<<<1<",
"<<<<<<1<<<<<<<<<<<<<<<<221<<<<<<",
"<<<<<<&*:=<<<<<<1<<<<<1<<<<<<<<<",
"<1<<<1,,<1<<<<<<<<<<     <<<<<<<",
"<1<    <<<<<<<<<<<11     <<    <",
"<11X oo<<<<<<<<6@o111   o<1    <",
"<11   O<<      677 111  <<<<   <",
"   7  7  5###66667  ;> *<1<<<  <",
"   7  7  ##6655567  >, :<1<<<  <",
"  7    ####66665667    211<<<  <",
"  7    #.#++6     66666666666< 5",
"  7    ####56   55 66666666666 5",
"  7    #.#++6     66666666666< 5",
"  7    ####66665667    <<<<<<  <",
"   7  7  ##6655567  << <<<2>=  1",
"   7  7  5###66667  <<  <1<:   <",
"<<<   O<<      677 <<<  <<<1   <",
"<<<X oo,%-;;1<<6@o<<<   o<<    <",
"<<<    <<<<,<<<<<<<<     <<    <",
"1<<<<<<<1<<<<<<<<<<<     <<<<<<<",
"<<<<<<<<<<<<<<<<1<<1111111<<<<<1",
"<<<<<<<<<<<<<<<<<<111<><<<<<<<<2",
"1<<<<<<<<<<<<<<<<1111=<<<<<<<<<1",
"<<<<<<<<<<<<<<<<111111<<<<<<<<<<",
"111<<<<<<<<<<<<<1111111<<<<<<<<<",
"<11<<<<23<22<31<111111<<122<<<<<",
"4<1<<<<122<<<1<<1111111122<<<<<<"
};
