/* XPM */
static char *_2d3dfda75a745269ecbcc62076a0dedfL4JCxlOfMVlZteQ[] = {
/* columns rows colors chars-per-pixel */
"40 40 41 1 ",
"  c None",
". c #5C2C28",
"X c #5D2C28",
"o c #5C2D28",
"O c #5D2D28",
"+ c #5C2C29",
"@ c #5D2C29",
"# c #5C2D29",
"$ c #5D2D29",
"% c #36464E",
"& c #37464E",
"* c #36474E",
"= c #37474E",
"- c #36464F",
"; c #37464F",
": c #36474F",
"> c #37474F",
", c #8A4836",
"< c #8B4836",
"1 c #8A4936",
"2 c #8B4936",
"3 c #8A4837",
"4 c #8B4837",
"5 c #8A4937",
"6 c #8B4937",
"7 c #BE6E4A",
"8 c #BF6E4A",
"9 c #BE6F4A",
"0 c #BF6F4A",
"q c #BE6E4B",
"w c #BF6E4B",
"e c #BE6F4B",
"r c #BF6F4B",
"t c #E69C68",
"y c #E79C68",
"u c #E69D68",
"i c #E79D68",
"p c #E69C69",
"a c #E79C69",
"s c #E69D69",
"d c #E79D69",
/* pixels */
"            :::::::::::::::::           ",
"            :111111111111111:           ",
"            :111111111111111:           ",
"            :111111111111111:           ",
"            :111111111111111:           ",
"            :111111111111111:           ",
"            :111XXXXXXXXXi11:           ",
"            :111X00X00X00i11:           ",
"            :111X00X00X00i1i:           ",
"            :111X00X00X00i1X:           ",
"            :111X00X00X00i1X:           ",
"            :111X00X00X00i1X:           ",
"            :111X00X00X00i1X:           ",
"            :111X00X00X00i1X:           ",
"            :111X00X00X00i11:           ",
"            :111X00X00X00i11:           ",
"            :111Xiiiiiiiii11:           ",
"            :111Xiiiiiiiii11:           ",
"            :111111111111111:           ",
"            :111111111111111:           ",
"            :111111111111111:           ",
"            :111111111111111:           ",
"            :111111111111111:           ",
"            :111111111111111:           ",
"            :111XXXXXXXXXi11:           ",
"            :111X00X00X00i11:           ",
"            :111X00X00X00i1i:           ",
"            :111X00X00X00i1X:           ",
"            :111X00X00X00i1X:           ",
"            :111X00X00X00i1X:           ",
"            :111X00X00X00i1X:           ",
"            :111X00X00X00i1X:           ",
"            :111X00X00X00i11:           ",
"            :111X00X00X00i11:           ",
"            :111Xiiiiiiiii11:           ",
"            :111111111111111:           ",
"            :111111111111111:           ",
"            :111111111111111:           ",
"            :111111111111111:           ",
"            :::::::::::::::::           "
};
