/* XPM */
static char *_1bda63c493248cbba94a13e445a4edfO3TuYd0BCOUb2qc7[] = {
/* columns rows colors chars-per-pixel */
"40 40 114 2 ",
"   c #160609",
".  c #1A0709",
"X  c #15090B",
"o  c #1B0C0D",
"O  c #1F170A",
"+  c #1D0E11",
"@  c #1D1012",
"#  c #18171F",
"$  c #210D0E",
"%  c #22140D",
"&  c #25180F",
"*  c #2F1D0F",
"=  c #2D0712",
"-  c #220D13",
";  c #221412",
":  c #221913",
">  c #2E1D13",
",  c #211419",
"<  c #271918",
"1  c #2C1E1D",
"2  c #311F13",
"3  c #37171D",
"4  c #3B151C",
"5  c #33191C",
"6  c #39250C",
"7  c #2E2015",
"8  c #26211D",
"9  c #2C2319",
"0  c #352414",
"q  c #171520",
"w  c #191820",
"e  c #3B0F20",
"r  c #261D24",
"t  c #291E23",
"y  c #262023",
"u  c #292023",
"i  c #272128",
"p  c #2A2429",
"a  c #302720",
"s  c #3A2E3C",
"d  c #37363F",
"f  c #39313E",
"g  c #313A3F",
"h  c #43111A",
"j  c #44241B",
"k  c #471226",
"l  c #4E1826",
"z  c #471E29",
"x  c #4F1E2B",
"c  c #521A25",
"v  c #541A2B",
"b  c #5B1D2A",
"n  c #581D31",
"m  c #483330",
"M  c #52513D",
"N  c #363341",
"B  c #3C3642",
"V  c #333A43",
"C  c #383844",
"Z  c #4C4E40",
"A  c #5A4744",
"S  c #534C43",
"D  c #4C5544",
"F  c #525044",
"G  c #5A5866",
"H  c #545D6E",
"J  c #4E5F79",
"K  c #545E73",
"L  c #585E73",
"P  c #545F7B",
"I  c #5B5F78",
"U  c #68576A",
"Y  c #6D5B6D",
"T  c #70596F",
"R  c #6E5D70",
"E  c #725A71",
"W  c #4D606F",
"Q  c #50646E",
"!  c #4C6078",
"~  c #5B6172",
"^  c #53617B",
"/  c #895F6D",
"(  c #876573",
")  c #949786",
"_  c #949688",
"`  c #8C8E94",
"'  c #958997",
"]  c #908E99",
"[  c #8C9195",
"{  c #949496",
"}  c #949399",
"|  c #A9AB9D",
" . c #9C8DA3",
".. c #BD99A7",
"X. c #BCA3A6",
"o. c #D59A96",
"O. c #D69D9C",
"+. c #D89E9D",
"@. c #C39CAF",
"#. c #ED9EA1",
"$. c #C1A2A7",
"%. c #D6A0A0",
"&. c #D8A0A3",
"*. c #DFA2A1",
"=. c #E8BABD",
"-. c #E5CEDE",
";. c #FFF7DE",
":. c #FCF3E2",
">. c #FFF7E2",
",. c #FEF7E4",
"<. c #FFF8E3",
"1. c #FFFAE4",
"2. c #FFF8E8",
"3. c #FAFDE8",
/* pixels */
"w w w w w w w w w w w w w w w w w w w w w w w w w w w w w w w w w w w w w w w w ",
"m m m m m m m m m m m m m m m m m m m m w m m m m m m m m m m m m m m m m m m w ",
"w w w w w w w w w w w w w w w w w w w m w w w w w w w w w w w w w w w w w w m w ",
"m | | | | | | | | m | | | | | | | | w m w +.+.>.>.>.>.>.>.>.1.;.>.>.>.+.+.w m w ",
"m _ _ | | | | | | m _ _ | | | | | | w m w +.+.>.>.>.>.>.>.>.Y <.>.>.>.+.+.w m w ",
"m | | | | | | | | m | | | | | | | | w m w +.+.+.<.,.,.,.,.,.Y <.,.,.+.+.+.w m w ",
"m _ _ | | | | | | m _ _ | | | | | | w m w +.+.+.*.2.2.2.2.2.Y 1.2.3.+.+.+.w m w ",
"m | | | | | | | | m | | | | | | | | w m w +.+.+.+.+.O.:.2.2.d #.+.+.+.+.+.w m w ",
"m _ _ | | | | | | m _ _ | | | | | | w m w $.$.$.$.+.O.+.+.+.N &.+.+.+.+.+.w m w ",
"m | | | | | | | | m | | | | | | | | w m w $.$.X.O.O.+.+.+.+.V O.+.+.+.+.+.w m w ",
"m _ _ | | | | | | m _ _ | | | | | | w m w +.+.+.+.+.+.+.+.+.d O.+.+.+.+.+.w m w ",
"m | | | | | | | | m | | | | | | | | w m w +.+.+.+.+.+.+.+.! I d +.+.+.+.+.w m w ",
"m _ _ | | | | | | m _ _ | | | | | | w m w +.+.+.+.O.+.Q W y y y y r +.+.+.w m w ",
"m | | | | | | | | m | | | | | | | | w m w +.+.%.O.o.Q N t y y y y y p ~ +.w m w ",
"m _ _ | | | | | | m _ _ | | | | | | w m w O.+.] U Y Y t g V V V C V C i t w m w ",
"m | | | | | | | | m | | | | | | | | w m w ` ] ] ] 3 4 v + + + + o $ o 4 e w m w ",
"m _ _ | | | | | | m _ _ | | | | | | w m w ] ] ] ] ] ] c X . + + + X ] ] ] w m w ",
"m | | | | | | | | m | | | | | | | | w m w ] ] ] ] ] v c ; $ . + + + , ] ] w m w ",
"m _ _ | | | | | | m _ _ | | | | | | w m w ] ] E L K T d u u u u u u y C d w m w ",
"m | | | | | | | | m | | | | | | | | w m w ] ] ] 4 4 t y 4 3 h 5 4 4 z y [ w m w ",
"m _ _ | | | | | | m _ _ | | | | | | w m w ] ] ] ' ` v n @ @ @ @ @ @ - p ` w m w ",
"m | | | | | | | | m | | | | | | | | w m w ] ] ] ] ]  . .^ ^ ^ + ^ ^ o + F w m w ",
"m _ _ | | | | | | m _ _ | | | | | | w m w ] ] { } ` v z + + + + + + o o < w m w ",
"m _ _ _ _ _ _ _ _ m _ _ _ _ _ _ _ _ w m w ] M b l x o = + @ @ + @ @ ; +   w m w ",
"m m m m m m m m m m m m m m m m m m # m w F S D - $ y L H K K y P ^ P w F w m w ",
"m | | | | | | | | m | | | | | | | | w m w F F F v x + ; X @ , + o + o @ S w m w ",
"m | | | | | | | | m | | | | | | | | w m w F F F v c + ^ K K ^ + K L K + S w m w ",
"m | | | | | | | | m | | | | | | | | w m w @...Z v k + G J ~ ^ + ^ K ^ , S w m w ",
"m ) ) ) ) ) ) ) ) m ) ) ) ) ) ) ) ) w m w + ( R E E P y y y y y y y y 0 2 w m w ",
"A A m m m m m m A A A m m m m m m A w m w 9 + a T T E y y y y : r r r 6 2 w m w ",
"A m A m m m m A m A m A m m m m A m q m w 9 / 2 2 O : 8 : : : : p 8 8 > : w m w ",
"A m m A m m A m m A m m A m m A m m q m w ; < 2 2 % ; y : : : i p t 1 2 2 w m w ",
"A m m m A A m m m A m m m A A m m m q m w -.Y Y < : ; : : : 2 0 2 2 2 2 ; w m w ",
"A m m m A A m m m A m m m A A m m m q m w =.d r t 2 % : % % 7 % > * > : ; w m w ",
"A m m A m m A m m A m m A m m A m m q m w j 2 j 2 2 % & % 2 2 2 > % : : : : m w ",
"A m A m m m m A m A m A m m m m A m q m w s s B s s B B s s s B s f B B B q m w ",
"A A m m m m m m A A A m m m m m m A q m w s s B s s s s s s s s s B s s s q m w ",
"w w w w w w w w w w w w w w w w w w w m w w w w w w w w w w w w w w w w w w m w ",
"m m m m m m m m m m m m m m m m m m m m w m m m m m m m m m m m m m m m m m m w ",
"w w w w w w w w w w w w w w w w w w w w w w w w w w w w w w w w w w w w w w w w "
};
