/* XPM */
static char *c43f2db44b4f47d6b19058710cd0ffd3ItvnRhzuxnczhZgN[] = {
/* columns rows colors chars-per-pixel */
"32 32 29 1 ",
"  c #1C263D",
". c #6E263A",
"X c #56585C",
"o c #5A5B5F",
"O c #414969",
"+ c #5B5D61",
"@ c #5C5E62",
"# c #5F6165",
"$ c #616367",
"% c #636468",
"& c #65676B",
"* c #67696D",
"= c #696B6F",
"- c #6A6C70",
"; c #6D6F73",
": c #6E7074",
"> c #717377",
", c #75777B",
"< c #77797D",
"1 c #787A7E",
"2 c #832F42",
"3 c #842F44",
"4 c #853044",
"5 c #893347",
"6 c #B53951",
"7 c #A94257",
"8 c #AC4358",
"9 c #EEA20C",
"0 c #F5D6A2",
/* pixels */
";;;:;;:1;;;;;;;;;;;;>>;;*X$:;;;;",
";;;:;;;;;;;;;;;;;;;1,;;;:::;;;;;",
";;;:;;;;;;;;;;;;;;>>;;;;;;;;;;;;",
";;:;;;;;;;;;;;;;;;;;;;;;;;;;;;:;",
">;;;;;;;;;;;;;;;;;;;;;;;;;;;;;;;",
":;;;;;;;;;;;;;;;;;;;;;;;;;;;;;:;",
";;;;OOOO;;;;>:;;;;;;;;;>>:;;;;;;",
";;;;00OOOO;;:;;;:;6666666666;;;;",
";:;;99--OOOO;;;;;66;;::;;;;2;;;;",
";:;;99;;;;OOO;;;;66::;;;;;;2;;;;",
";:::;;;;;;;OOO ;222:::;;:;22;;;;",
";::;;;;;;;;;    222222222222;;;;",
"::;;;;;;;;;;   2222222222222;;;;",
":::;;;;;;;;;; 22288888888222;;;;",
";:::::;::::;:222888888888822;;;;",
";;;;;;;;;;;:;228.88888888.82;;;;",
";;;;;;;;;;:;+2288.888888.882;;;;",
";;;;;;;;;;;;;22888.8888.8882;;;;",
";;;;;;;;;;:;;228888.88.88882;;;;",
";;;;;;;;;:;;;2288888..887882$@=:",
";;;;;;;;;;;;;2288888..888882#=:;",
";;;;;;;;;;;:;228888.88.88882::;;",
";;;;;;;-o%&&:22888.8888.8882;;;;",
";;;;;;;;;;;-;2288.888888.882;;;;",
":;;;;;;;:;;;;228.88888888.82;;;;",
";;;;;;;;;;;;;228888888888882;;;:",
";;;;;;;;;;;;;222888888888824;;;>",
":;;;;;;;;;;;;224555555543222;;;:",
";;;;;;;;;;;;;;;;::::::;;;;;;;;;;",
":::;;;;;;;;;;;;;:::::::;;;;;;;;;",
";::;;;;>,;>>;,:;::::::;;:>>;;;;;",
"<;:;;;;:>>;;;:;;::::::::>>;;;;;;"
};
