/* XPM */
static char *_724cef55e67424bff56efb4a5610ba0nuvHmFpnghidJvtk[] = {
/* columns rows colors chars-per-pixel */
"32 32 17 1 ",
"  c #56585C",
". c #5A5B5F",
"X c #5B5D61",
"o c #5C5D61",
"O c #5F6064",
"+ c #626367",
"@ c #636468",
"# c #65676B",
"$ c #67696D",
"% c #686A6E",
"& c #6A6C70",
"* c #6D6F73",
"= c #6E7074",
"- c #717377",
"; c #75777B",
": c #77797D",
"> c #787A7E",
/* pixels */
"***=**=>************--**$ +=****",
"***=***************>;***===*****",
"***=**************--************",
"**=***************************=*",
"-*******************************",
"=*****************************=*",
"******=*****-=*********--=******",
"******oO$+**=***=*****=*********",
"*=****&&*=***********==*********",
"*=****************===***********",
"*===*************=====**=*=*****",
"*==*************======*=********",
"==**************====#%+O*=******",
"===***********==***=%&$$*=******",
"*=====*====*=******====-==******",
"***********=*****=**************",
"**********=*X*******************",
"*********************=**********",
"**********=**********=**********",
"*********=****************-%+o%=",
"*************************=*$O%=*",
"***********=***************===**",
"*******&.@##=*******************",
"***********&********************",
"=*******=*************==********",
"****************=**=======*****=",
"******************===*%********-",
"=****************====+*********=",
"****************======**********",
"===*************=======*********",
"*==****-;*--*;=*======**=--*****",
":*=****=--***=**========--******"
};
