/* XPM */
static char *_16d18870a734695c11ea96667a667c4ZWiDyzmT1Hw5W7oR[] = {
/* columns rows colors chars-per-pixel */
"40 40 3 1 ",
"  c #4E7A36",
". c #599136",
"X c #65AB3F",
/* pixels */
" XX.XXXXX. .XXXX.XXXX. .XX  XX.XXXX. .XX",
"XXX. .XXXXXXXXXX. .XXXXXXXXXXX. .XXXXXXX",
"X.XXX.XX.XXXXX.XXX.X.XXXXXXX.XXX.X.XXXXX",
"X.X XXXX.X X.X.X XXX.X X.XXX.X XXX.X X.X",
"XXX XXXXXX X.XXX XXXXX X.XXXXX XXXXX X.X",
".XXXXX. .XXXXXXXXXX..XXXXX..XXXXX..XXXXX",
".XX.XX. .XXXXXXX.XX..XXXXX..XX.XX..XXXXX",
"XXX.XXXXXX.XXXXXXXX.XX.XX.XXXXXXX.XX.XX.",
"XXXXXX.XXX.XX. XX. .XXXXX.XX XX. .XXXXX.",
"X XX. .XXXXXX. XX.XX.XX XXXX XX.XX.XX XX",
"X XX.XXX.XX XXX.XXXX.XX XXXXX.XXXX.XX XX",
"XX.XXXXX.XX XXX.XXX XXXXX.XXX.XXX XXXXX.",
"XX.XXX XXXXXX.XXXXXXX. .X.  XXXXXXX. .X.",
" XX.XXXXX. .XX XX.XXXX. .XX XX.XXXX. .XX",
"XXX. .XXXXXXXXXXX. .XXXXXXXXXX. .XXXXXXX",
"X.XXX.XX.XXXXXX.XXX.X.XXXXXX.XXX.X.XXXXX",
"X.X XXXX.X X.XX.X XXX.X X.XX.X XXX.X X.X",
"XXX XXXXXX X.XXXX XXXXX X.XXXX XXXXX X.X",
".XXXXX. .XXXXX.XXXXX..XXXXX.XXXXX..XXXXX",
".XX.XX. .XXXXX.XX.XX..XXXXX.XX.XX..XXXXX",
"XXX.XXXXXX.XXXXXXXXX.XX.XX.XXXXXX.XX.XX.",
"XXXXXX.XXX.XX.X XX. .XXXXX.X XX. .XXXXX.",
"X XX. .XXXXXX.X XX.XX.XX XXX XX.XX.XX XX",
"X XX.XXX.XX XXXX.XXXX.XX XXXX.XXXX.XX XX",
"XX.XXXXX.XX XXXX.XXX XXXXX.XX.XXX XXXXX.",
"XX.XXX XXXXXX. XXXXXXX. .X. XXXXXXX. .X.",
" XX.XXXXX. .XX XX.XXXXX. . XX.XXXXX. .XX",
" XX.XXXXX. .XXXXX. .XXXXXXXXX. .XXXXXXXX",
"XXX. .XXXXXXXXX.XXX.XX.XXXX.XXX.XX.XXXXX",
"X.XXX.XX.XXXXXX.X XXXX.X XX.X XXXX.X X.X",
"X.X XXXX.X X.XXXX XXXXXX XXXX XXXXXX X.X",
"XXX XXXXXX X.X.XXXXX. .XXX.XXXXX. .XXXXX",
".XXXXX. .XXXXX.XX.XX. .XXX.XX.XX. .XXXXX",
".XX.XX. .XXXXXXXX.XXXXXX.XXXX.XXXXXX.XXX",
"XXX.XXXXXX.XXXXXXXXX.XXX.XXXXXXX.XXX.XX.",
"XXXXXX.XXX.XX.X XX. .XXXXXX XX. .XXXXXX.",
"X XX. .XXXXXX.X XX.XXX.XX X XX.XXX.XX XX",
"X XX.XXX.XX XXXX.XXXXX.XX XX.XXXXX.XX XX",
"XX.XXXXX.XX XXXX.XXX XXXXXXX.XXX XXXXXX.",
"XX.XXX XXXXXX. XXXXX XX. . XXXXX XX. .X."
};
