/* XPM */
static char *_8ffb650ca814d8cc67f15d76e3c2e72kgB7ROp2BCtMv2cW[] = {
/* columns rows colors chars-per-pixel */
"40 40 63 1 ",
"  c None",
". c black",
"X c #010000",
"o c #000100",
"O c #010100",
"+ c #000001",
"@ c #010001",
"# c #000101",
"$ c #010101",
"% c #682800",
"& c #692800",
"* c #682900",
"= c #682801",
"- c #692801",
"; c #B84600",
": c #B84700",
"> c #B94700",
", c #B84601",
"< c #B84701",
"1 c #B94701",
"2 c #F06000",
"3 c #F16000",
"4 c #F06100",
"5 c #F06001",
"6 c #F06101",
"7 c #987858",
"8 c #997858",
"9 c #987958",
"0 c #997958",
"q c #987859",
"w c #997859",
"e c #987959",
"r c #F89800",
"t c #F89900",
"y c #F99900",
"u c #F89801",
"i c #F8F800",
"p c #F9F800",
"a c #F8F900",
"s c #F8F801",
"d c #F8F901",
"f c #E89750",
"g c #E99750",
"h c #E89751",
"j c #000090",
"k c #010090",
"l c #000190",
"z c #000091",
"x c #0060E0",
"c c #0160E0",
"v c #0061E0",
"b c #0061E1",
"n c #C8C0B8",
"m c #C9C0B8",
"M c #C8C1B8",
"N c #C8C0B9",
"B c #F8D8A0",
"V c #F9D8A0",
"C c #F8D9A0",
"Z c #F8D8A1",
"A c #F9D9A1",
"S c #F8F8F8",
"D c #F8F8F9",
/* pixels */
"                     XX                 ",
"               XXX  XusX                ",
"              X<usXXussXXX              ",
"             XXX<usssssssuX             ",
"            X%uuussssssssXX             ",
"             X%uuussssssssuX            ",
"            X<u<u<X0000usuX             ",
"             X<ujbnX  njusX             ",
"              Xjjbn %  jb0sX            ",
"              Xjj%X%XX%X%XX             ",
"              XZ00%0ff%0X               ",
"              Xf0ff0Z0fZX               ",
"               X%ffZZZZZX               ",
"               XX%ff0ZZX                ",
"              XnD00XZ0%nXX              ",
"             XnnnnDXZ0nDDnX             ",
"             XXj000%Z00n0jjX            ",
"            X<%XXXfZ0Z0X%22X            ",
"           X22<%<ZfZ0ZfXu<uX            ",
"           X<<%2<Z0f%f0%2<2X            ",
"           X<<%<<%XX<XX%%<2X            ",
"            XXXXX%<<<<<%XXX             ",
"              X<<<2<<%22<X              ",
"              X<<2222%22<X              ",
"              X<22uu<%2u<X              ",
"               XXXXXXXXXX               ",
"              X<<<<<%%<<<X              ",
"             X<22<<<%<<222X             ",
"             X22<<<XXX<<22<X            ",
"             X<<<<X  X<<<<<X            ",
"             X<<<X    X<<<%X            ",
"             X%%%X    X%%%%X            ",
"            X22<<X    X<<22%X           ",
"            X%%%%X    X%%%%%X           ",
"            XXX0X      X0XXXX           ",
"           XbbbjX      XjbbbX           ",
"          XZZjjjjX    XjjjjZZX          ",
"         XjjjjjjXX    XXjjjjjjX         ",
"         XXXXXXXXX    XXXXXXXXX         ",
"                                       X"
};
