/* XPM */
static char *e11fe2d4bac8434dab5695b61d884ce5BB2gAKyt0tYcszcL[] = {
/* columns rows colors chars-per-pixel */
"32 32 20 1 ",
"  c gray1",
". c #040404",
"X c #56585C",
"o c #5A5B5F",
"O c #5C5D61",
"+ c #5F6064",
"@ c #626367",
"# c #636468",
"$ c #67696D",
"% c #686A6E",
"& c #6A6C70",
"* c #6D6F73",
"= c #6E7074",
"- c #707276",
"; c #75777B",
": c #77797D",
"> c #AC0606",
", c #FED905",
"< c gray78",
"1 c #F1F1F1",
/* pixels */
"***=**=*************--**$X@=****",
"***=********************===*****",
"***=****************************",
"**=***************************=*",
"***********************&********",
"******************************=*",
"******=****************=-=******",
"*******+$@******=***************",
"*=****O&*=**********************",
"*=*    ********==*==      ******",
"*==    ********=====      =1111*",
"*==* .**     11111>==   .**1111*",
"1>>*     >>>111>>>>>==  ****111*",
"1>>*    >>>11111>>>>%& $ =***11*",
"1>>*>>>>>>111111>>>>>> - =***11*",
"1>>>>>>>><<<<<<   >>>>>>11111*11",
"1>>>>>>><<<<<<  ,, >>>>111111111",
"1>>>>>>>><<<<<<   >>>>>>11111*11",
"1>>*>>>>>>111111>>>>>> * ****11*",
"1>>*    >>>11111>>>>** * *-%@11=",
"1>>*     >>>111>>>>>*= * =*=111*",
"***=  =*     11111>**=  .**1111*",
"***    &o#**=*====*&=     *1111*",
"***    ****&*****=**=     ******",
"=*******=********=*=************",
"****************==========*****=",
"****************=====*%********-",
"=***************=====@*********=",
"****************======**********",
"===*************=======*********",
"*==****-;*--*;=*======**=--*****",
":*=****=--***=**========--******"
};
