/* XPM */
static char *result[] = {
/* columns rows colors chars-per-pixel */
"32 32 46 1 ",
"  c #4F240C",
". c #58290E",
"X c #622E10",
"o c #6D3412",
"O c #56585C",
"+ c #5A5B5F",
"@ c #5C5D61",
"# c #5C5E62",
"$ c #5F6064",
"% c #5F6165",
"& c #606266",
"* c #616367",
"= c #626367",
"- c #636468",
"; c #65676B",
": c #66686C",
"> c #67696D",
", c #68696D",
"< c #686A6E",
"1 c #696B6F",
"2 c #6A6C70",
"3 c #6B6D71",
"4 c #6C6D71",
"5 c #6C6E72",
"6 c #6D6E72",
"7 c #6C6F73",
"8 c #6D6F73",
"9 c #6E6F73",
"0 c #6D7074",
"q c #6E7074",
"w c #6F7074",
"e c #6F7175",
"r c #707175",
"t c #707276",
"y c #717276",
"u c #717377",
"i c #727377",
"p c #75777B",
"a c #76777B",
"s c #77797D",
"d c #78797D",
"f c #787A7E",
"g c #B39207",
"h c #C7A308",
"j c #DEB609",
"k c #F7CB0B",
/* pixels */
"888q85ef888888888868ry98>O&q8888",
"888q888888888888889da588qqq88888",
"888q88888888888888tt988888888888",
"88q888888888888888858888888888q8",
"u8888888888888888888888558888888",
"q88888888888888888888888888888e6",
"588888q98879ye888888888rt0588858",
"888885@$>=88e888q88888q889888488",
"8q8888226w89588888888qq888886888",
"8q8888888g8hhkkkkkkkk8k888888888",
"8qqq8688g8ghhkkkkkkkkk8kq5q88888",
"8qq88889g88hhkkkkkkkkq8k88888888",
"qq888886g88hhkkkkkkkk1*k8q888888",
"qqq885888g8hhkkkkkkkk2k:8q888888",
"8qqqqq8qqqghhhkkkkkkkketqq888888",
"888888858g8hhhkkkkkkk8k888888888",
"8888858888q8hhhkkkkk888888888888",
"88888888888888hjjk888q8888888888",
"8888888585q8888hh8888q8858888888",
"888888888w8885hhhk86888888y,*#<q",
"8888888888888hhhkkk888888w8>%1q8",
"88858888888q. XXoooo5888888qeq88",
"88888882+-;;.Xjjkjoo888888888888",
"888888888883.Xjkjjoo885888888888",
"q8888888q88..oooooooo8qq88888888",
"8888888888888888q88qqeeqeq88888e",
"888888888888888888qqq8<88888868y",
"e8888888888888888qqqe*888888888q",
"5888888888888888qqqqqe8888888886",
"qqq8888888888888qqqqqqq888889688",
"5qq8885tp9ut8ae8qqqqqq88qti95888",
"s8q8888qtu688q88qqqqqqqquy658888"
};
