/* XPM */
static char *_db0ed9ac0a740d49800a54861a072c4cEAjfPVXyjSawPt8[] = {
/* columns rows colors chars-per-pixel */
"40 40 6 1 ",
"  c #000001",
". c #805A4A",
"X c #99725F",
"o c #B48871",
"O c #E1A486",
"+ c #DBB6A4",
/* pixels */
"O++O+OOOO+++++OO  OOO+++OOOO++OO  O++OOO",
".XXooOoooooOOoOO  .oOoooOOooOooO  .XOOOO",
".XXooOoooooOOoOO  .oOoooOOooOooO  .XOOOO",
"Xoooooooooooooo+  .XooooooooooO+  .XoOOO",
"XoooooooooooooOO  XoooooooooooOO  Xoooo+",
"XoooooooooooooO+  XXooooooooooO+  XXoOOO",
".XXXooooXXXoooXO  .XXooXXoooXoXO  XXoXX+",
".XXXooooXXXoooXO  .XXooXXoooXoXO  XXoXX+",
"XXXXX...XX.XXXXO  XX.XXXXX..X.XO  .X.XXO",
"                                        ",
"OOO++OOO O+++OOO+++++OOO OOOO++OOOO++OOO",
"OooOooOO .XOOOOooooOoOOO .ooOooOOOoOoooO",
"OooOooOO .XOOOOooooOoOOO .ooOooOOOoOoooO",
"oooooO++ .XooOOoooooooo+ .XXoooooooooOO+",
"oooooOOO Xoooo+ooooooOOO XoooooooooooOOO",
"oooooO++ XXooOOooooooOO+ XXXoooooooooOO+",
"oooXoXOO XXooX+XXXXooXXO .XXXoXXoooXoXXO",
"oooXoXOO XXooX+XXXXooXXO .XXXoXXoooXoXXO",
"X..X.XOO .X..XOXXX.XXXXO XXX.XXXXX.X.XXO",
"                                        ",
"O++O+OOOO+++++OO  OOO+++OOOO++OO  O++OOO",
".XXooOoooooOOoOO  .oOoooOOooOooO  .XOOOO",
".XXooOoooooOOoOO  .oOoooOOooOooO  .XOOOO",
"Xoooooooooooooo+  .XooooooooooO+  .XoOOO",
"XoooooooooooooOO  XoooooooooooOO  Xoooo+",
"XoooooooooooooO+  XXooooooooooO+  XXoOOO",
".XXXooooXXXoooXO  .XXooXXoooXoXO  XXoXX+",
".XXXooooXXXoooXO  .XXooXXoooXoXO  XXoXX+",
"XXXXX...XX.XXXXO  XX.XXXXX..X.XO  .X.XXO",
"                                        ",
"OOO++OOO O+++OOO+++++OOO OOOO++OOOO++OOO",
"OooOooOO .XOOOOooooOoOOO .ooOooOOOoOoooO",
"oooooO++ .XooOOoooooooo+ .XXoooooooooOO+",
"oooooO++ .XooOOoooooooo+ .XXoooooooooOO+",
"oooooOOO Xoooo+ooooooOOO XoooooooooooOOO",
"oooooO++ XXooOOooooooOO+ XXXoooooooooOO+",
"oooXoXOO XXooX+XXXXooXXO .XXXoXXoooXoXXO",
"X..X.XOO .X..XOXXX.XXXXO XXX.XXXXX.X.XXO",
"X..X.XOO .X..XOXXX.XXXXO XXX.XXXXX.X.XXO",
"                                        "
};
