/* XPM */
static char *_629392900cc4a0cf6234d6fee18d2114DRh2kVugcUiTYHx[] = {
/* columns rows colors chars-per-pixel */
"32 32 12 1 ",
"  c None",
". c black",
"X c gray11",
"o c #202020",
"O c gray14",
"+ c #282828",
"@ c #2C2D2D",
"# c #313232",
"$ c #373838",
"% c #3E3F3F",
"& c #454647",
"* c #BBB817",
/* pixels */
"       o@#####%o$$#$$#$o        ",
"       o@######o$##$##$o        ",
"       o@######o$##$##$o        ",
"       o@#####%o$$#$$#$o        ",
"       o@######o$##$##$o        ",
"       o@#####%o$$#$$#$o        ",
"       o@######o$##$##$o        ",
"       o##$$###o$##$##$o        ",
"oXXoXXo%######%o$$#$$#$%ooooOoOO",
"$##############o$##$$###########",
"$$$#########$##$$#@$$$$#########",
"%%%$$#*******##$%$*******#$$$$$%",
"$####*....****#$$*....****##$$$$",
"$$$##**....***#$$**....***######",
"%%%$$***....**$#$***....**$$$$$$",
"ooooo****....*XXX****....*oooooo",
"$####***....**###***....**######",
"$$$##**....***$$$**....***######",
"%%%$$*....****%%$*....****#$$$$$",
"$#####*******%%%%%*******#######",
"%%%$$#######$%%%$$%%%$$$########",
"&&&%%#$$$$$$#$$%$#$$%%%%$$#$$$$$",
"OOOOOoO%@#####%o$$#$$#$%oooXoooo",
"       o@######o$##$##$o        ",
"       o@######o$##$##$o        ",
"       o@#####%o$$#$$#$o        ",
"       O#######o$##$##$o        ",
"       +######%o$$#$$#$o        ",
"       +#######o$##$##$o        ",
"       +$#$$###o$##$##$o        ",
"       O$#####%o$$#$$#$o        ",
"       O$######o$##$$##o        "
};
