/* XPM */
static char *_8370836b7f24f17ceda0589a56114991y840nw4lrE93mNy[] = {
/* columns rows colors chars-per-pixel */
"40 40 60 1 ",
"  c #18171F",
". c #171520",
"X c #191820",
"o c #1F2D36",
"O c #1D2A3A",
"+ c #1F3038",
"@ c #372227",
"# c #332427",
"$ c #362629",
"% c #253431",
"& c #203337",
"* c #263937",
"= c #273C37",
"- c #203138",
"; c #27313A",
": c #223438",
"> c #273B3A",
", c #283B39",
"< c #293C3A",
"1 c #283E3C",
"2 c #2C3F3D",
"3 c #4F2F30",
"4 c #483330",
"5 c #2D4642",
"6 c #2D4744",
"7 c #3D5A56",
"8 c #3C5C57",
"9 c #3A5F58",
"0 c #3F5D5B",
"q c #3E5C5C",
"w c #3F5E60",
"e c #455A47",
"r c #465B48",
"t c #485D4A",
"y c #415B5A",
"u c #405F5A",
"i c #43605C",
"p c #5F6354",
"a c #5F6654",
"s c #5F6758",
"d c #5F675C",
"f c #626552",
"g c #636557",
"h c #686755",
"j c #616951",
"k c #646953",
"l c #656857",
"z c #636758",
"x c #646658",
"c c #67675D",
"v c #68665A",
"b c #69655C",
"n c #616A59",
"m c #656958",
"M c #666A5C",
"N c #696A5A",
"B c #415F61",
"V c #949786",
"C c #949688",
"Z c #A9AB9D",
/* pixels */
"XXXXXXXXXXXXXXXXXXXXXXXXXXXXXXXXXXXXXXXX",
"X44444444444444444444444444444444444444X",
"X4XXXXXXXXXXXXXXXXXXXXXXXXXXXXXXXXXXXX4X",
"X4XZZZZZZZZ4ZZZZZZZ4ZZZZZZZZ4ZZZZZZZZX4X",
"X4XCCZZZZZZ4CCZZZZZ4CCZZZZZZ4CCZZZZZZX4X",
"X4XZZZZZZZZ4ZZZZZZZ4ZZZZZZZZ4ZZZZZZZZX4X",
"X4XCCZZZZZZ4CCZZZZZ4CCZZZZZZ4CCZZZZZZX4X",
"X4XZZZZZZZZ4ZZZZZZZ4ZZZZZZZZ4ZZZZZZZZX4X",
"X4XCCZZZZZZ4CCZZZZZ4CCZZZZZZ4CCZZZZZZX4X",
"X4XZZZZZZZZ4ZZZZZZZ4ZZZZZZZZ4ZZZZZZZZX4X",
"X4XCCZZZZZZ4CCZZZZZ4CCZZZZZZ4CCZZZZZZX4X",
"X4XZZZZZZZZ4ZZZZZZZ4ZZZZZZZZ4ZZZZZZZZX4X",
"X4XCCZZZZZZ4CCZZZZZ4CCZZZZZZ4CCZZZZZZX4X",
"X4XZZZZZZZZ4ZZZZZZZ4ZZZZZZZZ4ZZZZZZZZX4X",
"X4XCCZZZZZZ4CCZZZZZ4CCZZZZZZ4CCZZZZZZX4X",
"X4XZZZZZZZZ4ZZZZZZZ4ZZZZZZZZ4ZZZZZZZZX4X",
"X4XCCZZZZZZ4CCZZZZZ4CCZZZZZZ4CCZZZZZZX4X",
"X4XZZZZZZZZ4ZZZZZZZ4ZZZZZZZZ4ZZZZZZZZX4X",
"X4XCCZZZZZZ4CCZZZZZ4CCZZZZZZ4CCZZZZZZX4X",
"X4XZZZZZZZZ4ZZZZZZZ4ZZZZZZZZ4ZZZZZZZZX4X",
"X4XCCZZZZZZ4CCZZZZZ4CCZZZZZZ4CCZZZZZZX4X",
"X4XZZZZZZZZ4ZZZZZZZ4ZZZZZZZZ4ZZZZZZZZX4X",
"X4XCCZZZZZZ4CCZZZZZ4CCZZZZZZ4CCZZZZZZX4X",
"X4XCCCCCCCC4CCCCCCC4CCCCCCCC4CCCCCCCCX4X",
"X4X3444444444444444444444444444444444 4X",
"X4XZZZZZZZZ4ZZZZZZZ4ZZZZZZZZ4ZZZZZZZZX4X",
"X4XZZZZZZZZ4ZZZZZZZ4ZZZZZZZZ4ZZZZZZZZX4X",
"X4XZZZZZZZZ4ZZZZZZZ4ZZZZZZZZ4ZZZZZZZZX4X",
"X4XVVVVVVVV4VVVVVVV4VVVVVVVV4VVVVVVVVX4X",
"X4X4444444444444444444444444444444444X4X",
"X4Xtttttttttttttttttttttttttttttttttt.4X",
"X4X=2hxplpdxxxxzxxxxxxxxxxxxxxxxxxngt.4X",
"X4X--xxxxx-o-%xg$@m7#5sf-&xxxxxxxxxeM.4X",
"X4Xxgl,----sxxxxx,7---0vvB80xxxxxxxxr.4X",
"X4XxxxxxxxxNui55wqb955mxxxxxxxxxxxxxx.4X",
"X4Xxxu6555c65-x&555555-ggxxx:<1+y;axx.4X",
"X4Xxx5kxj&15&;xx-556*+1*>xn;<<,--u-Ox.4X",
"X4XXXXXXXXXXXXXXXXXXXXXXXXXXXXXXXXXXXX4X",
"X44444444444444444444444444444444444444X",
"XXXXXXXXXXXXXXXXXXXXXXXXXXXXXXXXXXXXXXXX"
};
